# xmcd CD database file
#
# Track frame offsets:
#	150
#	51280
#	79787
#	96787
#	122730
#	154875
#
# Disc length: 2447 seconds
#
# Revision: 0
# Processed by: cddbd v1.5.1PL0 Copyright (c) Steve Scherf et al.
# Submitted via: CDex 1.51
#
DISCID=46098d06
DTITLE=Harold Alexander - Sunshine man
DYEAR=1971
DGENRE=Jazz
TTITLE0=Sunshine man
TTITLE1=Quick city
TTITLE2=Tite rope
TTITLE3=Mama soul
TTITLE4=Aquilla
TTITLE5=Clean-up
EXTD=YEAR: 1971
EXTT0=
EXTT1=
EXTT2=
EXTT3=
EXTT4=
EXTT5=
PLAYORDER=
